# xmcd
#
# Track frame offsets:
#	150
#	16630
#	33697
#	51855
#	70327
#	86787
#	103992
#	120245
#	139347
#	152835
#	168447
#	183525
#	213856
#
# Disc length: 2865 seconds
#
# Revision: 0
# Processed by: cddbd v1.5.1PL0 Copyright (c) Steve Scherf et al.
# Submitted via: dBpowerAMP V4.0
#
DISCID=b40b2f0d
DTITLE=O'Ryan - O'Ryan
DYEAR=2004
DGENRE=R&B
TTITLE0=Introducing
TTITLE1=Jus Anotha Shorty
TTITLE2=Take It Slow
TTITLE3=Ina Bad Way
TTITLE4=Bad Situation
TTITLE5=Anything
TTITLE6=Going Out Your Way
TTITLE7=I'm Coming
TTITLE8=45 Minutes
TTITLE9=She Loves The Club
TTITLE10=Shorty
TTITLE11=Smellz Like A Party
TTITLE12=DATA
EXTD=O'Ryan is Omarion from B2K's lil brother this is his first album
EXTT0=
EXTT1=
EXTT2=
EXTT3=
EXTT4=
EXTT5=
EXTT6=
EXTT7=
EXTT8=
EXTT9=
EXTT10=
EXTT11=
EXTT12=
PLAYORDER=
